<?xml version="1.0" encoding="UTF-8"?><svg xmlns="http://www.w3.org/2000/svg" xmlns:xlink="http://www.w3.org/1999/xlink" stroke-dasharray="none" shape-rendering="auto" font-family="'Dialog'" width="908" text-rendering="auto" fill-opacity="1" contentScriptType="text/ecmascript" color-interpolation="auto" color-rendering="auto" preserveAspectRatio="xMidYMid meet" font-size="12" xmlns:diagram="http://www.eclipse.org/sirius/diagram/1.1.0" diagram:semanticRoot="platform:/resource/StudentMS/RequirementsModel/studentms.remodel#//@DomainModel" viewBox="0 0 908 652" fill="black" stroke="black" image-rendering="auto" stroke-miterlimit="10" zoomAndPan="magnify" version="1.0" stroke-linecap="square" stroke-linejoin="miter" contentStyleType="text/css" font-style="normal" height="652" stroke-width="1" stroke-dashoffset="0" font-weight="normal" stroke-opacity="1">
    <!--Generated by the Batik Graphics2D SVG Generator-->
    <defs id="genericDefs"/>
    <g>
        <defs id="defs1">
            <linearGradient x1="335" x2="476" y1="380" gradientUnits="userSpaceOnUse" y2="491" xlink:type="simple" xlink:actuate="onLoad" id="linearGradient1" xlink:show="other" spreadMethod="pad">
                <stop stop-opacity="1" stop-color="white" offset="0%"/>
                <stop stop-opacity="1" stop-color="rgb(194,239,255)" offset="100%"/>
            </linearGradient>
            <linearGradient x1="497" x2="649" y1="536" gradientUnits="userSpaceOnUse" y2="656" xlink:type="simple" xlink:actuate="onLoad" id="linearGradient2" xlink:show="other" spreadMethod="pad">
                <stop stop-opacity="1" stop-color="white" offset="0%"/>
                <stop stop-opacity="1" stop-color="rgb(194,239,255)" offset="100%"/>
            </linearGradient>
            <linearGradient x1="502" x2="660" y1="288" gradientUnits="userSpaceOnUse" y2="411" xlink:type="simple" xlink:actuate="onLoad" id="linearGradient3" xlink:show="other" spreadMethod="pad">
                <stop stop-opacity="1" stop-color="white" offset="0%"/>
                <stop stop-opacity="1" stop-color="rgb(194,239,255)" offset="100%"/>
            </linearGradient>
            <linearGradient x1="127" x2="291" y1="521" gradientUnits="userSpaceOnUse" y2="647" xlink:type="simple" xlink:actuate="onLoad" id="linearGradient4" xlink:show="other" spreadMethod="pad">
                <stop stop-opacity="1" stop-color="white" offset="0%"/>
                <stop stop-opacity="1" stop-color="rgb(194,239,255)" offset="100%"/>
            </linearGradient>
            <linearGradient x1="330" x2="494" y1="61" gradientUnits="userSpaceOnUse" y2="195" xlink:type="simple" xlink:actuate="onLoad" id="linearGradient5" xlink:show="other" spreadMethod="pad">
                <stop stop-opacity="1" stop-color="white" offset="0%"/>
                <stop stop-opacity="1" stop-color="rgb(194,239,255)" offset="100%"/>
            </linearGradient>
            <linearGradient x1="735" x2="881" y1="425" gradientUnits="userSpaceOnUse" y2="539" xlink:type="simple" xlink:actuate="onLoad" id="linearGradient6" xlink:show="other" spreadMethod="pad">
                <stop stop-opacity="1" stop-color="white" offset="0%"/>
                <stop stop-opacity="1" stop-color="rgb(194,239,255)" offset="100%"/>
            </linearGradient>
            <linearGradient x1="730" x2="896" y1="27" gradientUnits="userSpaceOnUse" y2="155" xlink:type="simple" xlink:actuate="onLoad" id="linearGradient7" xlink:show="other" spreadMethod="pad">
                <stop stop-opacity="1" stop-color="white" offset="0%"/>
                <stop stop-opacity="1" stop-color="rgb(194,239,255)" offset="100%"/>
            </linearGradient>
            <linearGradient x1="30" x2="166" y1="-3" gradientUnits="userSpaceOnUse" y2="106" xlink:type="simple" xlink:actuate="onLoad" id="linearGradient8" xlink:show="other" spreadMethod="pad">
                <stop stop-opacity="1" stop-color="white" offset="0%"/>
                <stop stop-opacity="1" stop-color="rgb(194,239,255)" offset="100%"/>
            </linearGradient>
            <linearGradient x1="72" x2="233" y1="239" gradientUnits="userSpaceOnUse" y2="377" xlink:type="simple" xlink:actuate="onLoad" id="linearGradient9" xlink:show="other" spreadMethod="pad">
                <stop stop-opacity="1" stop-color="white" offset="0%"/>
                <stop stop-opacity="1" stop-color="rgb(194,239,255)" offset="100%"/>
            </linearGradient>
            <clipPath clipPathUnits="userSpaceOnUse" id="clipPath1">
                <path d="M334 394 L479 394 L479 479 L334 479 L334 394 Z"/>
            </clipPath>
            <clipPath clipPathUnits="userSpaceOnUse" id="clipPath2">
                <path d="M334 394 L477 394 L477 477 L334 477 L334 394 Z"/>
            </clipPath>
            <clipPath clipPathUnits="userSpaceOnUse" id="clipPath3">
                <path d="M389 399 L424 399 L424 420 L389 420 L389 399 Z"/>
            </clipPath>
            <clipPath clipPathUnits="userSpaceOnUse" id="clipPath4">
                <path d="M339 425 L400 425 L400 444 L339 444 L339 425 Z"/>
            </clipPath>
            <clipPath clipPathUnits="userSpaceOnUse" id="clipPath5">
                <path d="M339 442 L424 442 L424 461 L339 461 L339 442 Z"/>
            </clipPath>
            <clipPath clipPathUnits="userSpaceOnUse" id="clipPath6">
                <path d="M335 423 L476 423 L476 476 L335 476 L335 423 Z"/>
            </clipPath>
            <clipPath clipPathUnits="userSpaceOnUse" id="clipPath7">
                <path d="M496 551 L652 551 L652 643 L496 643 L496 551 Z"/>
            </clipPath>
            <clipPath clipPathUnits="userSpaceOnUse" id="clipPath8">
                <path d="M496 551 L650 551 L650 641 L496 641 L496 551 Z"/>
            </clipPath>
            <clipPath clipPathUnits="userSpaceOnUse" id="clipPath9">
                <path d="M525 556 L623 556 L623 577 L525 577 L525 556 Z"/>
            </clipPath>
            <clipPath clipPathUnits="userSpaceOnUse" id="clipPath10">
                <path d="M497 580 L649 580 L649 640 L497 640 L497 580 Z"/>
            </clipPath>
            <clipPath clipPathUnits="userSpaceOnUse" id="clipPath11">
                <path d="M501 304 L663 304 L663 396 L501 396 L501 304 Z"/>
            </clipPath>
            <clipPath clipPathUnits="userSpaceOnUse" id="clipPath12">
                <path d="M501 304 L661 304 L661 394 L501 394 L501 304 Z"/>
            </clipPath>
            <clipPath clipPathUnits="userSpaceOnUse" id="clipPath13">
                <path d="M554 309 L610 309 L610 330 L554 330 L554 309 Z"/>
            </clipPath>
            <clipPath clipPathUnits="userSpaceOnUse" id="clipPath14">
                <path d="M502 333 L660 333 L660 393 L502 393 L502 333 Z"/>
            </clipPath>
            <clipPath clipPathUnits="userSpaceOnUse" id="clipPath15">
                <path d="M126 539 L294 539 L294 631 L126 631 L126 539 Z"/>
            </clipPath>
            <clipPath clipPathUnits="userSpaceOnUse" id="clipPath16">
                <path d="M126 539 L292 539 L292 629 L126 629 L126 539 Z"/>
            </clipPath>
            <clipPath clipPathUnits="userSpaceOnUse" id="clipPath17">
                <path d="M181 544 L239 544 L239 565 L181 565 L181 544 Z"/>
            </clipPath>
            <clipPath clipPathUnits="userSpaceOnUse" id="clipPath18">
                <path d="M127 568 L291 568 L291 628 L127 628 L127 568 Z"/>
            </clipPath>
            <clipPath clipPathUnits="userSpaceOnUse" id="clipPath19">
                <path d="M329 74 L497 74 L497 183 L329 183 L329 74 Z"/>
            </clipPath>
            <clipPath clipPathUnits="userSpaceOnUse" id="clipPath20">
                <path d="M329 74 L495 74 L495 181 L329 181 L329 74 Z"/>
            </clipPath>
            <clipPath clipPathUnits="userSpaceOnUse" id="clipPath21">
                <path d="M388 79 L439 79 L439 100 L388 100 L388 79 Z"/>
            </clipPath>
            <clipPath clipPathUnits="userSpaceOnUse" id="clipPath22">
                <path d="M334 105 L395 105 L395 124 L334 124 L334 105 Z"/>
            </clipPath>
            <clipPath clipPathUnits="userSpaceOnUse" id="clipPath23">
                <path d="M334 122 L419 122 L419 141 L334 141 L334 122 Z"/>
            </clipPath>
            <clipPath clipPathUnits="userSpaceOnUse" id="clipPath24">
                <path d="M334 139 L429 139 L429 158 L334 158 L334 139 Z"/>
            </clipPath>
            <clipPath clipPathUnits="userSpaceOnUse" id="clipPath25">
                <path d="M330 103 L494 103 L494 180 L330 180 L330 103 Z"/>
            </clipPath>
            <clipPath clipPathUnits="userSpaceOnUse" id="clipPath26">
                <path d="M734 439 L884 439 L884 526 L734 526 L734 439 Z"/>
            </clipPath>
            <clipPath clipPathUnits="userSpaceOnUse" id="clipPath27">
                <path d="M734 439 L882 439 L882 524 L734 524 L734 439 Z"/>
            </clipPath>
            <clipPath clipPathUnits="userSpaceOnUse" id="clipPath28">
                <path d="M786 444 L833 444 L833 465 L786 465 L786 444 Z"/>
            </clipPath>
            <clipPath clipPathUnits="userSpaceOnUse" id="clipPath29">
                <path d="M739 470 L832 470 L832 489 L739 489 L739 470 Z"/>
            </clipPath>
            <clipPath clipPathUnits="userSpaceOnUse" id="clipPath30">
                <path d="M739 487 L829 487 L829 506 L739 506 L739 487 Z"/>
            </clipPath>
            <clipPath clipPathUnits="userSpaceOnUse" id="clipPath31">
                <path d="M739 504 L816 504 L816 523 L739 523 L739 504 Z"/>
            </clipPath>
            <clipPath clipPathUnits="userSpaceOnUse" id="clipPath32">
                <path d="M735 468 L881 468 L881 523 L735 523 L735 468 Z"/>
            </clipPath>
            <clipPath clipPathUnits="userSpaceOnUse" id="clipPath33">
                <path d="M729 44 L899 44 L899 139 L729 139 L729 44 Z"/>
            </clipPath>
            <clipPath clipPathUnits="userSpaceOnUse" id="clipPath34">
                <path d="M729 44 L897 44 L897 137 L729 137 L729 44 Z"/>
            </clipPath>
            <clipPath clipPathUnits="userSpaceOnUse" id="clipPath35">
                <path d="M745 49 L884 49 L884 70 L745 70 L745 49 Z"/>
            </clipPath>
            <clipPath clipPathUnits="userSpaceOnUse" id="clipPath36">
                <path d="M734 75 L824 75 L824 94 L734 94 L734 75 Z"/>
            </clipPath>
            <clipPath clipPathUnits="userSpaceOnUse" id="clipPath37">
                <path d="M734 92 L827 92 L827 111 L734 111 L734 92 Z"/>
            </clipPath>
            <clipPath clipPathUnits="userSpaceOnUse" id="clipPath38">
                <path d="M730 73 L896 73 L896 136 L730 136 L730 73 Z"/>
            </clipPath>
            <clipPath clipPathUnits="userSpaceOnUse" id="clipPath39">
                <path d="M29 9 L169 9 L169 96 L29 96 L29 9 Z"/>
            </clipPath>
            <clipPath clipPathUnits="userSpaceOnUse" id="clipPath40">
                <path d="M29 9 L167 9 L167 94 L29 94 L29 9 Z"/>
            </clipPath>
            <clipPath clipPathUnits="userSpaceOnUse" id="clipPath41">
                <path d="M62 14 L137 14 L137 35 L62 35 L62 14 Z"/>
            </clipPath>
            <clipPath clipPathUnits="userSpaceOnUse" id="clipPath42">
                <path d="M34 40 L95 40 L95 59 L34 59 L34 40 Z"/>
            </clipPath>
            <clipPath clipPathUnits="userSpaceOnUse" id="clipPath43">
                <path d="M34 57 L119 57 L119 76 L34 76 L34 57 Z"/>
            </clipPath>
            <clipPath clipPathUnits="userSpaceOnUse" id="clipPath44">
                <path d="M34 74 L129 74 L129 93 L34 93 L34 74 Z"/>
            </clipPath>
            <clipPath clipPathUnits="userSpaceOnUse" id="clipPath45">
                <path d="M30 38 L166 38 L166 93 L30 93 L30 38 Z"/>
            </clipPath>
            <clipPath clipPathUnits="userSpaceOnUse" id="clipPath46">
                <path d="M71 249 L236 249 L236 369 L71 369 L71 249 Z"/>
            </clipPath>
            <clipPath clipPathUnits="userSpaceOnUse" id="clipPath47">
                <path d="M71 249 L234 249 L234 367 L71 367 L71 249 Z"/>
            </clipPath>
            <clipPath clipPathUnits="userSpaceOnUse" id="clipPath48">
                <path d="M74 254 L233 254 L233 294 L74 294 L74 254 Z"/>
            </clipPath>
            <clipPath clipPathUnits="userSpaceOnUse" id="clipPath49">
                <path d="M74 254 L234 254 L234 294 L74 294 L74 254 Z"/>
            </clipPath>
            <clipPath clipPathUnits="userSpaceOnUse" id="clipPath50">
                <path d="M76 299 L166 299 L166 318 L76 318 L76 299 Z"/>
            </clipPath>
            <clipPath clipPathUnits="userSpaceOnUse" id="clipPath51">
                <path d="M76 316 L187 316 L187 335 L76 335 L76 316 Z"/>
            </clipPath>
            <clipPath clipPathUnits="userSpaceOnUse" id="clipPath52">
                <path d="M72 297 L233 297 L233 366 L72 366 L72 297 Z"/>
            </clipPath>
            <clipPath clipPathUnits="userSpaceOnUse" id="clipPath53">
                <path d="M-1 -1 L909 -1 L909 653 L-1 653 L-1 -1 Z"/>
            </clipPath>
            <clipPath clipPathUnits="userSpaceOnUse" id="clipPath54">
                <path d="M412 475 L424 475 L424 485 L412 485 L412 475 Z"/>
            </clipPath>
            <clipPath clipPathUnits="userSpaceOnUse" id="clipPath55">
                <path d="M475 410 L487 410 L487 421 L475 421 L475 410 Z"/>
            </clipPath>
            <clipPath clipPathUnits="userSpaceOnUse" id="clipPath56">
                <path d="M403 474 L415 474 L415 485 L403 485 L403 474 Z"/>
            </clipPath>
            <clipPath clipPathUnits="userSpaceOnUse" id="clipPath57">
                <path d="M382 195 L492 195 L492 214 L382 214 L382 195 Z"/>
            </clipPath>
            <clipPath clipPathUnits="userSpaceOnUse" id="clipPath58">
                <path d="M564 392 L671 392 L671 411 L564 411 L564 392 Z"/>
            </clipPath>
            <clipPath clipPathUnits="userSpaceOnUse" id="clipPath59">
                <path d="M534 91 L719 91 L719 110 L534 110 L534 91 Z"/>
            </clipPath>
            <clipPath clipPathUnits="userSpaceOnUse" id="clipPath60">
                <path d="M555 280 L728 280 L728 299 L555 299 L555 280 Z"/>
            </clipPath>
            <clipPath clipPathUnits="userSpaceOnUse" id="clipPath61">
                <path d="M22 207 L261 207 L261 226 L22 226 L22 207 Z"/>
            </clipPath>
            <clipPath clipPathUnits="userSpaceOnUse" id="clipPath62">
                <path d="M179 290 L397 290 L397 309 L179 309 L179 290 Z"/>
            </clipPath>
            <clipPath clipPathUnits="userSpaceOnUse" id="clipPath63">
                <path d="M193 85 L321 85 L321 104 L193 104 L193 85 Z"/>
            </clipPath>
        </defs>
        <g fill="rgb(131,122,133)" font-family="'Microsoft YaHei UI'" stroke-linejoin="round" stroke="rgb(131,122,133)" font-weight="bold" stroke-width="0" stroke-miterlimit="0">
            <rect x="336" y="396" clip-path="url(#clipPath1)" width="141" rx="0" opacity="0.2549" ry="0" height="81" stroke="none"/>
            <rect x="337" y="397" clip-path="url(#clipPath1)" width="141" rx="0" opacity="0.2549" ry="0" height="81" stroke="none"/>
            <rect x="335" y="395" clip-path="url(#clipPath2)" fill="url(#linearGradient1)" width="141" rx="0" ry="0" height="81" stroke="none"/>
        </g>
        <g stroke-linecap="butt" fill="rgb(39,76,114)" font-family="'Microsoft YaHei UI'" stroke="rgb(39,76,114)" font-weight="bold" stroke-width="1.1">
            <rect x="335" y="395" clip-path="url(#clipPath2)" fill="none" width="140" rx="0" ry="0" height="80"/>
            <text x="390" y="413" clip-path="url(#clipPath3)" fill="black" stroke="none" xml:space="preserve">User</text>
        </g>
        <g stroke-width="1.1" font-size="10" font-family="'Microsoft YaHei UI'" stroke-linecap="butt">
            <text xml:space="preserve" x="340" y="437" clip-path="url(#clipPath4)" stroke="none">Id : String</text>
            <text xml:space="preserve" x="340" y="454" clip-path="url(#clipPath5)" stroke="none">Name : String</text>
        </g>
        <g stroke-linecap="butt" fill="rgb(39,76,114)" font-family="'Microsoft YaHei UI'" stroke="rgb(39,76,114)" font-weight="bold" stroke-width="1.1">
            <line clip-path="url(#clipPath6)" fill="none" x1="336" x2="475" y1="424" y2="424"/>
            <rect x="498" y="553" clip-path="url(#clipPath7)" fill="rgb(131,122,133)" width="152" rx="0" opacity="0.2549" ry="0" height="88" stroke="none"/>
            <rect x="499" y="554" clip-path="url(#clipPath7)" fill="rgb(131,122,133)" width="152" rx="0" opacity="0.2549" ry="0" height="88" stroke="none"/>
            <rect x="497" y="552" clip-path="url(#clipPath8)" fill="url(#linearGradient2)" width="152" rx="0" ry="0" height="88" stroke="none"/>
            <rect x="497" y="552" clip-path="url(#clipPath8)" fill="none" width="151" rx="0" ry="0" height="87"/>
            <text x="526" y="570" clip-path="url(#clipPath9)" fill="black" stroke="none" xml:space="preserve">Administrator</text>
            <line clip-path="url(#clipPath10)" fill="none" x1="498" x2="648" y1="581" y2="581"/>
            <rect x="503" y="306" clip-path="url(#clipPath11)" fill="rgb(131,122,133)" width="158" rx="0" opacity="0.2549" ry="0" height="88" stroke="none"/>
            <rect x="504" y="307" clip-path="url(#clipPath11)" fill="rgb(131,122,133)" width="158" rx="0" opacity="0.2549" ry="0" height="88" stroke="none"/>
            <rect x="502" y="305" clip-path="url(#clipPath12)" fill="url(#linearGradient3)" width="158" rx="0" ry="0" height="88" stroke="none"/>
            <rect x="502" y="305" clip-path="url(#clipPath12)" fill="none" width="157" rx="0" ry="0" height="87"/>
            <text x="555" y="323" clip-path="url(#clipPath13)" fill="black" stroke="none" xml:space="preserve">Student</text>
            <line clip-path="url(#clipPath14)" fill="none" x1="503" x2="659" y1="334" y2="334"/>
            <rect x="128" y="541" clip-path="url(#clipPath15)" fill="rgb(131,122,133)" width="164" rx="0" opacity="0.2549" ry="0" height="88" stroke="none"/>
            <rect x="129" y="542" clip-path="url(#clipPath15)" fill="rgb(131,122,133)" width="164" rx="0" opacity="0.2549" ry="0" height="88" stroke="none"/>
            <rect x="127" y="540" clip-path="url(#clipPath16)" fill="url(#linearGradient4)" width="164" rx="0" ry="0" height="88" stroke="none"/>
            <rect x="127" y="540" clip-path="url(#clipPath16)" fill="none" width="163" rx="0" ry="0" height="87"/>
            <text x="182" y="558" clip-path="url(#clipPath17)" fill="black" stroke="none" xml:space="preserve">Teacher</text>
            <line clip-path="url(#clipPath18)" fill="none" x1="128" x2="290" y1="569" y2="569"/>
            <rect x="331" y="76" clip-path="url(#clipPath19)" fill="rgb(131,122,133)" width="164" rx="0" opacity="0.2549" ry="0" height="105" stroke="none"/>
            <rect x="332" y="77" clip-path="url(#clipPath19)" fill="rgb(131,122,133)" width="164" rx="0" opacity="0.2549" ry="0" height="105" stroke="none"/>
            <rect x="330" y="75" clip-path="url(#clipPath20)" fill="url(#linearGradient5)" width="164" rx="0" ry="0" height="105" stroke="none"/>
            <rect x="330" y="75" clip-path="url(#clipPath20)" fill="none" width="163" rx="0" ry="0" height="104"/>
            <text x="389" y="93" clip-path="url(#clipPath21)" fill="black" stroke="none" xml:space="preserve">Course</text>
        </g>
        <g stroke-width="1.1" font-size="10" font-family="'Microsoft YaHei UI'" stroke-linecap="butt">
            <text xml:space="preserve" x="335" y="117" clip-path="url(#clipPath22)" stroke="none">Id : String</text>
            <text xml:space="preserve" x="335" y="134" clip-path="url(#clipPath23)" stroke="none">Name : String</text>
            <text xml:space="preserve" x="335" y="151" clip-path="url(#clipPath24)" stroke="none">Teacher : String</text>
        </g>
        <g stroke-linecap="butt" fill="rgb(39,76,114)" font-family="'Microsoft YaHei UI'" stroke="rgb(39,76,114)" font-weight="bold" stroke-width="1.1">
            <line clip-path="url(#clipPath25)" fill="none" x1="331" x2="493" y1="104" y2="104"/>
            <rect x="736" y="441" clip-path="url(#clipPath26)" fill="rgb(131,122,133)" width="146" rx="0" opacity="0.2549" ry="0" height="83" stroke="none"/>
            <rect x="737" y="442" clip-path="url(#clipPath26)" fill="rgb(131,122,133)" width="146" rx="0" opacity="0.2549" ry="0" height="83" stroke="none"/>
            <rect x="735" y="440" clip-path="url(#clipPath27)" fill="url(#linearGradient6)" width="146" rx="0" ry="0" height="83" stroke="none"/>
            <rect x="735" y="440" clip-path="url(#clipPath27)" fill="none" width="145" rx="0" ry="0" height="82"/>
            <text x="787" y="458" clip-path="url(#clipPath28)" fill="black" stroke="none" xml:space="preserve">Grade</text>
        </g>
        <g stroke-width="1.1" font-size="10" font-family="'Microsoft YaHei UI'" stroke-linecap="butt">
            <text xml:space="preserve" x="740" y="482" clip-path="url(#clipPath29)" stroke="none">Student : String</text>
            <text xml:space="preserve" x="740" y="499" clip-path="url(#clipPath30)" stroke="none">Course : String</text>
            <text xml:space="preserve" x="740" y="516" clip-path="url(#clipPath31)" stroke="none">Grade : Real</text>
        </g>
        <g stroke-linecap="butt" fill="rgb(39,76,114)" font-family="'Microsoft YaHei UI'" stroke="rgb(39,76,114)" font-weight="bold" stroke-width="1.1">
            <line clip-path="url(#clipPath32)" fill="none" x1="736" x2="880" y1="469" y2="469"/>
            <rect x="731" y="46" clip-path="url(#clipPath33)" fill="rgb(131,122,133)" width="166" rx="0" opacity="0.2549" ry="0" height="91" stroke="none"/>
            <rect x="732" y="47" clip-path="url(#clipPath33)" fill="rgb(131,122,133)" width="166" rx="0" opacity="0.2549" ry="0" height="91" stroke="none"/>
            <rect x="730" y="45" clip-path="url(#clipPath34)" fill="url(#linearGradient7)" width="166" rx="0" ry="0" height="91" stroke="none"/>
            <rect x="730" y="45" clip-path="url(#clipPath34)" fill="none" width="165" rx="0" ry="0" height="90"/>
            <text x="746" y="63" clip-path="url(#clipPath35)" fill="black" stroke="none" xml:space="preserve">SelectCourseRecord</text>
        </g>
        <g stroke-width="1.1" font-size="10" font-family="'Microsoft YaHei UI'" stroke-linecap="butt">
            <text xml:space="preserve" x="735" y="87" clip-path="url(#clipPath36)" stroke="none">Course : String</text>
            <text xml:space="preserve" x="735" y="104" clip-path="url(#clipPath37)" stroke="none">Student : String</text>
        </g>
        <g stroke-linecap="butt" fill="rgb(39,76,114)" font-family="'Microsoft YaHei UI'" stroke="rgb(39,76,114)" font-weight="bold" stroke-width="1.1">
            <line clip-path="url(#clipPath38)" fill="none" x1="731" x2="895" y1="74" y2="74"/>
            <rect x="31" y="11" clip-path="url(#clipPath39)" fill="rgb(131,122,133)" width="136" rx="0" opacity="0.2549" ry="0" height="83" stroke="none"/>
            <rect x="32" y="12" clip-path="url(#clipPath39)" fill="rgb(131,122,133)" width="136" rx="0" opacity="0.2549" ry="0" height="83" stroke="none"/>
            <rect x="30" y="10" clip-path="url(#clipPath40)" fill="url(#linearGradient8)" width="136" rx="0" ry="0" height="83" stroke="none"/>
            <rect x="30" y="10" clip-path="url(#clipPath40)" fill="none" width="135" rx="0" ry="0" height="82"/>
            <text x="63" y="28" clip-path="url(#clipPath41)" fill="black" stroke="none" xml:space="preserve">Classroom</text>
        </g>
        <g stroke-width="1.1" font-size="10" font-family="'Microsoft YaHei UI'" stroke-linecap="butt">
            <text xml:space="preserve" x="35" y="52" clip-path="url(#clipPath42)" stroke="none">Id : String</text>
            <text xml:space="preserve" x="35" y="69" clip-path="url(#clipPath43)" stroke="none">Name : String</text>
            <text xml:space="preserve" x="35" y="86" clip-path="url(#clipPath44)" stroke="none">Position : String</text>
        </g>
        <g stroke-linecap="butt" fill="rgb(39,76,114)" font-family="'Microsoft YaHei UI'" stroke="rgb(39,76,114)" font-weight="bold" stroke-width="1.1">
            <line clip-path="url(#clipPath45)" fill="none" x1="31" x2="165" y1="39" y2="39"/>
            <rect x="73" y="251" clip-path="url(#clipPath46)" fill="rgb(131,122,133)" width="161" rx="0" opacity="0.2549" ry="0" height="116" stroke="none"/>
            <rect x="74" y="252" clip-path="url(#clipPath46)" fill="rgb(131,122,133)" width="161" rx="0" opacity="0.2549" ry="0" height="116" stroke="none"/>
            <rect x="72" y="250" clip-path="url(#clipPath47)" fill="url(#linearGradient9)" width="161" rx="0" ry="0" height="116" stroke="none"/>
            <rect x="72" y="250" clip-path="url(#clipPath47)" fill="none" width="160" rx="0" ry="0" height="115"/>
            <text x="75" y="268" clip-path="url(#clipPath48)" fill="black" stroke="none" xml:space="preserve">CourseClassroomRelati</text>
            <text x="75" y="287" clip-path="url(#clipPath49)" fill="black" stroke="none" xml:space="preserve">on</text>
        </g>
        <g stroke-width="1.1" font-size="10" font-family="'Microsoft YaHei UI'" stroke-linecap="butt">
            <text xml:space="preserve" x="77" y="311" clip-path="url(#clipPath50)" stroke="none">Course : String</text>
            <text xml:space="preserve" x="77" y="328" clip-path="url(#clipPath51)" stroke="none">Classroom : String</text>
        </g>
        <g stroke-linecap="butt" fill="rgb(39,76,114)" font-family="'Microsoft YaHei UI'" stroke="rgb(39,76,114)" font-weight="bold" stroke-width="1.1">
            <line clip-path="url(#clipPath52)" fill="none" x1="73" x2="232" y1="298" y2="298"/>
        </g>
        <g stroke-linecap="butt" font-size="10" fill="rgb(136,136,136)" font-family="'Microsoft YaHei UI'" stroke="rgb(136,136,136)" stroke-width="1.1">
            <line clip-path="url(#clipPath53)" fill="none" x1="552" x2="413" y1="552" y2="476"/>
            <polygon fill="white" clip-path="url(#clipPath54)" points=" 413 476 422 476 418 483" stroke="none"/>
            <polygon fill="none" clip-path="url(#clipPath54)" points=" 413 476 422 476 418 483"/>
            <line clip-path="url(#clipPath53)" fill="none" x1="506" x2="476" y1="393" y2="419"/>
            <polygon fill="white" clip-path="url(#clipPath55)" points=" 476 419 479 411 485 417" stroke="none"/>
            <polygon fill="none" clip-path="url(#clipPath55)" points=" 476 419 479 411 485 417"/>
            <line clip-path="url(#clipPath53)" fill="none" x1="253" x2="413" y1="540" y2="476"/>
            <polygon fill="white" clip-path="url(#clipPath56)" points=" 413 476 407 483 404 475" stroke="none"/>
            <polygon fill="none" clip-path="url(#clipPath56)" points=" 413 476 407 483 404 475"/>
            <line clip-path="url(#clipPath53)" fill="none" x1="569" x2="413" y1="305" y2="180"/>
            <text x="383" y="207" clip-path="url(#clipPath57)" fill="black" stroke="none" xml:space="preserve">StudenttoCourse:*</text>
            <line clip-path="url(#clipPath53)" fill="none" x1="793" x2="588" y1="440" y2="393"/>
            <text x="565" y="404" clip-path="url(#clipPath58)" fill="black" stroke="none" xml:space="preserve">GradetoStudent:1</text>
            <line clip-path="url(#clipPath53)" fill="none" x1="494" x2="730" y1="117" y2="87"/>
            <text x="535" y="103" clip-path="url(#clipPath59)" fill="black" stroke="none" xml:space="preserve">CoursetoSelectCourseRecord:1</text>
            <line clip-path="url(#clipPath53)" fill="none" x1="762" x2="628" y1="136" y2="305"/>
            <text x="556" y="292" clip-path="url(#clipPath60)" fill="black" stroke="none" xml:space="preserve">CourseSelectCourseRecord:1</text>
            <line clip-path="url(#clipPath53)" fill="none" x1="98" x2="150" y1="93" y2="250"/>
            <text x="23" y="219" clip-path="url(#clipPath61)" fill="black" stroke="none" xml:space="preserve">ClassroomtoCourseClassroomRelation:1</text>
            <line clip-path="url(#clipPath53)" fill="none" x1="427" x2="233" y1="180" y2="332"/>
            <text x="180" y="302" clip-path="url(#clipPath62)" fill="black" stroke="none" xml:space="preserve">CoursetoCourseClassroomRelation:1</text>
            <line clip-path="url(#clipPath53)" fill="none" x1="166" x2="330" y1="52" y2="135"/>
            <text x="194" y="97" clip-path="url(#clipPath63)" fill="black" stroke="none" xml:space="preserve">ClassroomtoCourse:*</text>
        </g>
    </g>
</svg>
