<?xml version="1.0" encoding="UTF-8"?><svg xmlns="http://www.w3.org/2000/svg" xmlns:xlink="http://www.w3.org/1999/xlink" stroke-dasharray="none" shape-rendering="auto" font-family="'Dialog'" width="890" text-rendering="auto" fill-opacity="1" contentScriptType="text/ecmascript" color-interpolation="auto" color-rendering="auto" preserveAspectRatio="xMidYMid meet" font-size="12" xmlns:diagram="http://www.eclipse.org/sirius/diagram/1.1.0" diagram:semanticRoot="platform:/resource/StudentMS/DesignModel/studentms.xmi#/1/@sequencediagram.0/@interaction.4" viewBox="0 0 890 1070" fill="black" stroke="black" image-rendering="auto" stroke-miterlimit="10" zoomAndPan="magnify" version="1.0" stroke-linecap="square" stroke-linejoin="miter" contentStyleType="text/css" font-style="normal" height="1070" stroke-width="1" stroke-dashoffset="0" font-weight="normal" stroke-opacity="1">
    <!--Generated by the Batik Graphics2D SVG Generator-->
    <defs id="genericDefs"/>
    <g>
        <defs id="defs1">
            <clipPath clipPathUnits="userSpaceOnUse" id="clipPath1">
                <path d="M9 9 L131 9 L131 61 L9 61 L9 9 Z"/>
            </clipPath>
            <clipPath clipPathUnits="userSpaceOnUse" id="clipPath2">
                <path d="M10 10 L134 10 L134 60 L10 60 L10 10 Z"/>
            </clipPath>
            <clipPath clipPathUnits="userSpaceOnUse" id="clipPath3">
                <path d="M64 59 L76 59 L76 1061 L64 1061 L64 59 Z"/>
            </clipPath>
            <clipPath clipPathUnits="userSpaceOnUse" id="clipPath4">
                <path d="M64 89 L76 89 L76 466 L64 466 L64 89 Z"/>
            </clipPath>
            <clipPath clipPathUnits="userSpaceOnUse" id="clipPath5">
                <path d="M159 9 L281 9 L281 61 L159 61 L159 9 Z"/>
            </clipPath>
            <clipPath clipPathUnits="userSpaceOnUse" id="clipPath6">
                <path d="M160 10 L285 10 L285 60 L160 60 L160 10 Z"/>
            </clipPath>
            <clipPath clipPathUnits="userSpaceOnUse" id="clipPath7">
                <path d="M214 59 L226 59 L226 1061 L214 1061 L214 59 Z"/>
            </clipPath>
            <clipPath clipPathUnits="userSpaceOnUse" id="clipPath8">
                <path d="M214 109 L226 109 L226 446 L214 446 L214 109 Z"/>
            </clipPath>
            <clipPath clipPathUnits="userSpaceOnUse" id="clipPath9">
                <path d="M309 9 L431 9 L431 61 L309 61 L309 9 Z"/>
            </clipPath>
            <clipPath clipPathUnits="userSpaceOnUse" id="clipPath10">
                <path d="M310 10 L434 10 L434 60 L310 60 L310 10 Z"/>
            </clipPath>
            <clipPath clipPathUnits="userSpaceOnUse" id="clipPath11">
                <path d="M364 59 L376 59 L376 1061 L364 1061 L364 59 Z"/>
            </clipPath>
            <clipPath clipPathUnits="userSpaceOnUse" id="clipPath12">
                <path d="M364 149 L376 149 L376 211 L364 211 L364 149 Z"/>
            </clipPath>
            <clipPath clipPathUnits="userSpaceOnUse" id="clipPath13">
                <path d="M364 229 L376 229 L376 291 L364 291 L364 229 Z"/>
            </clipPath>
            <clipPath clipPathUnits="userSpaceOnUse" id="clipPath14">
                <path d="M364 309 L376 309 L376 426 L364 426 L364 309 Z"/>
            </clipPath>
            <clipPath clipPathUnits="userSpaceOnUse" id="clipPath15">
                <path d="M459 9 L581 9 L581 61 L459 61 L459 9 Z"/>
            </clipPath>
            <clipPath clipPathUnits="userSpaceOnUse" id="clipPath16">
                <path d="M514 59 L526 59 L526 1061 L514 1061 L514 59 Z"/>
            </clipPath>
            <clipPath clipPathUnits="userSpaceOnUse" id="clipPath17">
                <path d="M609 9 L731 9 L731 61 L609 61 L609 9 Z"/>
            </clipPath>
            <clipPath clipPathUnits="userSpaceOnUse" id="clipPath18">
                <path d="M664 59 L676 59 L676 1061 L664 1061 L664 59 Z"/>
            </clipPath>
            <clipPath clipPathUnits="userSpaceOnUse" id="clipPath19">
                <path d="M759 324 L881 324 L881 376 L759 376 L759 324 Z"/>
            </clipPath>
            <clipPath clipPathUnits="userSpaceOnUse" id="clipPath20">
                <path d="M760 325 L884 325 L884 375 L760 375 L760 325 Z"/>
            </clipPath>
            <clipPath clipPathUnits="userSpaceOnUse" id="clipPath21">
                <path d="M814 374 L826 374 L826 1061 L814 1061 L814 374 Z"/>
            </clipPath>
            <clipPath clipPathUnits="userSpaceOnUse" id="clipPath22">
                <path d="M-1 -1 L891 -1 L891 1071 L-1 1071 L-1 -1 Z"/>
            </clipPath>
            <clipPath clipPathUnits="userSpaceOnUse" id="clipPath23">
                <path d="M28 109 L267 109 L267 130 L28 130 L28 109 Z"/>
            </clipPath>
            <clipPath clipPathUnits="userSpaceOnUse" id="clipPath24">
                <path d="M205 123 L218 123 L218 136 L205 136 L205 123 Z"/>
            </clipPath>
            <clipPath clipPathUnits="userSpaceOnUse" id="clipPath25">
                <path d="M355 163 L368 163 L368 176 L355 176 L355 163 Z"/>
            </clipPath>
            <clipPath clipPathUnits="userSpaceOnUse" id="clipPath26">
                <path d="M355 243 L368 243 L368 256 L355 256 L355 243 Z"/>
            </clipPath>
            <clipPath clipPathUnits="userSpaceOnUse" id="clipPath27">
                <path d="M214 309 L381 309 L381 330 L214 330 L214 309 Z"/>
            </clipPath>
            <clipPath clipPathUnits="userSpaceOnUse" id="clipPath28">
                <path d="M355 323 L368 323 L368 336 L355 336 L355 323 Z"/>
            </clipPath>
            <clipPath clipPathUnits="userSpaceOnUse" id="clipPath29">
                <path d="M223 185 L235 185 L235 196 L223 196 L223 185 Z"/>
            </clipPath>
            <clipPath clipPathUnits="userSpaceOnUse" id="clipPath30">
                <path d="M223 265 L235 265 L235 276 L223 276 L223 265 Z"/>
            </clipPath>
            <clipPath clipPathUnits="userSpaceOnUse" id="clipPath31">
                <path d="M223 399 L235 399 L235 410 L223 410 L223 399 Z"/>
            </clipPath>
            <clipPath clipPathUnits="userSpaceOnUse" id="clipPath32">
                <path d="M751 345 L763 345 L763 356 L751 356 L751 345 Z"/>
            </clipPath>
        </defs>
        <g fill="rgb(194,239,255)" font-family="'Microsoft YaHei UI'" stroke-linejoin="round" stroke="rgb(194,239,255)" stroke-width="0" stroke-miterlimit="0">
            <rect x="10" y="10" clip-path="url(#clipPath1)" width="120" height="50" stroke="none"/>
        </g>
        <g stroke-width="1.1" font-family="'Microsoft YaHei UI'" stroke-linecap="butt">
            <rect x="10" y="10" clip-path="url(#clipPath1)" fill="none" width="119" height="49"/>
            <text x="24" font-size="16" y="39" clip-path="url(#clipPath2)" stroke="none" font-weight="bold" xml:space="preserve">Controller</text>
        </g>
        <g stroke-linecap="butt" font-size="10" fill="rgb(114,159,207)" font-family="'Microsoft YaHei UI'" stroke-dasharray="10,10" stroke="rgb(114,159,207)" stroke-width="2.1">
            <line clip-path="url(#clipPath3)" fill="none" x1="70" x2="70" y1="60" y2="1060"/>
            <rect x="65" y="90" clip-path="url(#clipPath4)" fill="rgb(125,125,125)" width="10" height="375" stroke="none"/>
        </g>
        <g stroke-width="1.1" font-family="'Microsoft YaHei UI'" stroke-linecap="butt">
            <rect x="65" y="90" clip-path="url(#clipPath4)" fill="none" width="9" height="374"/>
            <rect x="160" y="10" clip-path="url(#clipPath5)" fill="rgb(194,239,255)" width="120" height="50" stroke="none"/>
            <rect x="160" y="10" clip-path="url(#clipPath5)" fill="none" width="119" height="49"/>
            <text x="164" font-size="16" y="39" clip-path="url(#clipPath6)" stroke="none" font-weight="bold" xml:space="preserve">ManageCo...</text>
        </g>
        <g stroke-linecap="butt" font-size="10" fill="rgb(114,159,207)" font-family="'Microsoft YaHei UI'" stroke-dasharray="10,10" stroke="rgb(114,159,207)" stroke-width="2.1">
            <line clip-path="url(#clipPath7)" fill="none" x1="220" x2="220" y1="60" y2="1060"/>
            <rect x="215" y="110" clip-path="url(#clipPath8)" fill="rgb(125,125,125)" width="10" height="335" stroke="none"/>
        </g>
        <g stroke-width="1.1" font-family="'Microsoft YaHei UI'" stroke-linecap="butt">
            <rect x="215" y="110" clip-path="url(#clipPath8)" fill="none" width="9" height="334"/>
            <rect x="310" y="10" clip-path="url(#clipPath9)" fill="rgb(194,239,255)" width="120" height="50" stroke="none"/>
            <rect x="310" y="10" clip-path="url(#clipPath9)" fill="none" width="119" height="49"/>
            <text x="311" font-size="16" y="39" clip-path="url(#clipPath10)" stroke="none" font-weight="bold" xml:space="preserve">EntityMana...</text>
        </g>
        <g stroke-linecap="butt" font-size="10" fill="rgb(114,159,207)" font-family="'Microsoft YaHei UI'" stroke-dasharray="10,10" stroke="rgb(114,159,207)" stroke-width="2.1">
            <line clip-path="url(#clipPath11)" fill="none" x1="370" x2="370" y1="60" y2="1060"/>
            <rect x="365" y="150" clip-path="url(#clipPath12)" fill="rgb(125,125,125)" width="10" height="60" stroke="none"/>
        </g>
        <g stroke-width="1.1" font-family="'Microsoft YaHei UI'" stroke-linecap="butt">
            <rect x="365" y="150" clip-path="url(#clipPath12)" fill="none" width="9" height="59"/>
            <rect x="365" y="230" clip-path="url(#clipPath13)" fill="rgb(125,125,125)" width="10" height="60" stroke="none"/>
            <rect x="365" y="230" clip-path="url(#clipPath13)" fill="none" width="9" height="59"/>
            <rect x="365" y="310" clip-path="url(#clipPath14)" fill="rgb(125,125,125)" width="10" height="115" stroke="none"/>
            <rect x="365" y="310" clip-path="url(#clipPath14)" fill="none" width="9" height="114"/>
            <rect x="460" y="10" clip-path="url(#clipPath15)" fill="rgb(194,239,255)" width="120" height="50" stroke="none"/>
            <rect x="460" y="10" clip-path="url(#clipPath15)" fill="none" width="119" height="49"/>
        </g>
        <g stroke-linecap="butt" font-size="10" fill="rgb(114,159,207)" font-family="'Microsoft YaHei UI'" stroke-dasharray="10,10" stroke="rgb(114,159,207)" stroke-width="2.1">
            <line clip-path="url(#clipPath16)" fill="none" x1="520" x2="520" y1="60" y2="1060"/>
            <rect x="610" y="10" clip-path="url(#clipPath17)" fill="rgb(194,239,255)" width="120" height="50" stroke="none"/>
        </g>
        <g stroke-width="1.1" font-family="'Microsoft YaHei UI'" stroke-linecap="butt">
            <rect x="610" y="10" clip-path="url(#clipPath17)" fill="none" width="119" height="49"/>
        </g>
        <g stroke-linecap="butt" font-size="10" fill="rgb(114,159,207)" font-family="'Microsoft YaHei UI'" stroke-dasharray="10,10" stroke="rgb(114,159,207)" stroke-width="2.1">
            <line clip-path="url(#clipPath18)" fill="none" x1="670" x2="670" y1="60" y2="1060"/>
            <rect x="760" y="325" clip-path="url(#clipPath19)" fill="rgb(194,239,255)" width="120" height="50" stroke="none"/>
        </g>
        <g stroke-width="1.1" font-family="'Microsoft YaHei UI'" stroke-linecap="butt">
            <rect x="760" y="325" clip-path="url(#clipPath19)" fill="none" width="119" height="49"/>
            <text x="765" font-size="16" y="354" clip-path="url(#clipPath20)" stroke="none" font-weight="bold" xml:space="preserve">cou1 : Cou...</text>
        </g>
        <g stroke-linecap="butt" font-size="10" fill="rgb(114,159,207)" font-family="'Microsoft YaHei UI'" stroke-dasharray="10,10" stroke="rgb(114,159,207)" stroke-width="2.1">
            <line clip-path="url(#clipPath21)" fill="none" x1="820" x2="820" y1="375" y2="1060"/>
            <line clip-path="url(#clipPath22)" fill="none" x1="75" x2="215" y1="129" y2="129" stroke-dasharray="none"/>
        </g>
        <g stroke-width="2.1" font-size="13" font-family="'Microsoft YaHei UI'" font-weight="bold" stroke-linecap="butt">
            <text xml:space="preserve" x="29" y="124" clip-path="url(#clipPath23)" stroke="none">createCourse(id,name,teacher)</text>
            <polygon fill="rgb(114,159,207)" clip-path="url(#clipPath24)" points=" 215 129 207 133 207 125" stroke="none"/>
            <polygon fill="none" clip-path="url(#clipPath24)" points=" 215 129 207 133 207 125" stroke="rgb(114,159,207)"/>
            <line clip-path="url(#clipPath22)" fill="none" x1="225" x2="365" y1="169" y2="169" stroke="rgb(114,159,207)"/>
            <polygon fill="rgb(114,159,207)" clip-path="url(#clipPath25)" points=" 365 169 357 173 357 165" stroke="none"/>
            <polygon fill="none" clip-path="url(#clipPath25)" points=" 365 169 357 173 357 165" stroke="rgb(114,159,207)"/>
            <line clip-path="url(#clipPath22)" fill="none" x1="225" x2="365" y1="249" y2="249" stroke="rgb(114,159,207)"/>
            <polygon fill="rgb(114,159,207)" clip-path="url(#clipPath26)" points=" 365 249 357 253 357 245" stroke="none"/>
            <polygon fill="none" clip-path="url(#clipPath26)" points=" 365 249 357 253 357 245" stroke="rgb(114,159,207)"/>
            <line clip-path="url(#clipPath22)" fill="none" x1="225" x2="365" y1="329" y2="329" stroke="rgb(114,159,207)"/>
            <text xml:space="preserve" x="215" y="324" clip-path="url(#clipPath27)" stroke="none">createObject(Course)</text>
            <polygon fill="rgb(114,159,207)" clip-path="url(#clipPath28)" points=" 365 329 357 333 357 325" stroke="none"/>
            <polygon fill="none" clip-path="url(#clipPath28)" points=" 365 329 357 333 357 325" stroke="rgb(114,159,207)"/>
            <line clip-path="url(#clipPath22)" fill="none" x1="365" x2="225" y1="190" y2="190" stroke-dasharray="5,5" stroke="rgb(114,159,207)"/>
            <line clip-path="url(#clipPath29)" fill="none" x1="232" x2="225" y1="187" y2="190" stroke="rgb(114,159,207)"/>
            <line clip-path="url(#clipPath29)" fill="none" x1="225" x2="232" y1="190" y2="193" stroke="rgb(114,159,207)"/>
            <line clip-path="url(#clipPath22)" fill="none" x1="365" x2="225" y1="270" y2="270" stroke-dasharray="5,5" stroke="rgb(114,159,207)"/>
            <line clip-path="url(#clipPath30)" fill="none" x1="232" x2="225" y1="267" y2="270" stroke="rgb(114,159,207)"/>
            <line clip-path="url(#clipPath30)" fill="none" x1="225" x2="232" y1="270" y2="273" stroke="rgb(114,159,207)"/>
            <line clip-path="url(#clipPath22)" fill="none" x1="365" x2="225" y1="404" y2="404" stroke-dasharray="5,5" stroke="rgb(114,159,207)"/>
            <line clip-path="url(#clipPath31)" fill="none" x1="232" x2="225" y1="401" y2="404" stroke="rgb(114,159,207)"/>
            <line clip-path="url(#clipPath31)" fill="none" x1="225" x2="232" y1="404" y2="407" stroke="rgb(114,159,207)"/>
            <line clip-path="url(#clipPath22)" fill="none" x1="375" x2="760" y1="350" y2="350" stroke-dasharray="5,5" stroke="rgb(114,159,207)"/>
            <line clip-path="url(#clipPath32)" fill="none" x1="753" x2="760" y1="353" y2="350" stroke="rgb(114,159,207)"/>
            <line clip-path="url(#clipPath32)" fill="none" x1="760" x2="753" y1="350" y2="347" stroke="rgb(114,159,207)"/>
        </g>
    </g>
</svg>
